<svg width="450.45" height="86.10824265691828" viewBox="0 0 370 70.72938124777393" class="looka-1j8o68f"><defs id="SvgjsDefs1558"></defs><g id="SvgjsG1559" featurekey="Df7oLJ-0" transform="matrix(0.7865002008031269,0,0,0.7865002008031269,-4.34541330941126,-3.952163209009696)" fill="#fdfdcb"><g xmlns="http://www.w3.org/2000/svg"><rect x="57.3" y="11" transform="matrix(0.7071 0.7071 -0.7071 0.7071 27.9871 -38.0099)" width="5.2" height="7.5"></rect><rect x="66.1" y="19.7" transform="matrix(0.7071 0.7071 -0.7071 0.7071 36.6721 -41.6073)" width="4.9" height="7.5"></rect><rect x="66.5" y="10.4" transform="matrix(-0.7071 0.7071 -0.7071 -0.7071 129.3974 -27.5432)" width="7.9" height="5.3"></rect><rect x="61.6" y="15.4" transform="matrix(0.7071 0.7071 -0.7071 0.7071 32.3751 -39.8274)" width="5.3" height="7.5"></rect><rect x="60.1" y="25.7" transform="matrix(0.7071 0.7071 -0.7071 0.7071 39.1682 -35.5812)" width="4.9" height="7.5"></rect><path d="M47,31.3l5.3-5.3l-3.7-3.7L45,26c-0.9,0.9-0.9,2.4,0,3.3L47,31.3z"></path><path d="M53.9,38.3c0.9,0.9,2.4,0.9,3.3,0l3.7-3.7l-3.5-3.5l-5.3,5.3L53.9,38.3z"></path><rect x="55.6" y="21.4" transform="matrix(-0.7071 -0.7071 0.7071 -0.7071 81.6042 84.187)" width="5.3" height="7.5"></rect><path d="M73.7,21.8l3.9-3.9c0.9-0.9,0.9-2.4,0-3.3l-1.8-1.8l-5.6,5.6L73.7,21.8z"></path><rect x="51.3" y="17" transform="matrix(0.7071 0.7071 -0.7071 0.7071 30.4832 -31.9838)" width="5.2" height="7.5"></rect><path d="M70.6,7.7l-2-2c-0.9-0.9-2.4-0.9-3.3,0l-3.9,3.9l3.7,3.7L70.6,7.7z"></path><rect x="22.8" y="54.2" transform="matrix(0.7071 0.7071 -0.7071 0.7071 48.447 -1.0267)" width="5.3" height="7.5"></rect><rect x="21.3" y="64.5" transform="matrix(-0.7071 -0.7071 0.7071 -0.7071 -7.7728 133.3616)" width="4.9" height="7.5"></rect><rect x="27.3" y="58.5" transform="matrix(-0.7071 -0.7071 0.7071 -0.7071 6.7754 127.3354)" width="4.9" height="7.5"></rect><path d="M9.9,61.1l-3.7,3.7c-0.9,0.9-0.9,2.4,0,3.3l2,2l5.3-5.3L9.9,61.1z"></path><rect x="12.5" y="55.8" transform="matrix(0.7071 0.7071 -0.7071 0.7071 46.555 6.8172)" width="5.2" height="7.5"></rect><rect x="18.5" y="49.8" transform="matrix(0.7071 0.7071 -0.7071 0.7071 44.059 0.7911)" width="5.2" height="7.5"></rect><path d="M31.8,46.5l-2-2c-0.9-0.9-2.4-0.9-3.3,0l-3.9,3.9l3.7,3.7L31.8,46.5z"></path><path d="M37,51.6l-5.6,5.6l3.5,3.5l3.9-3.9c0.9-0.9,0.9-2.4,0-3.3L37,51.6z"></path><path d="M13.3,75.2l1.8,1.8c0.9,0.9,2.4,0.9,3.3,0l3.7-3.7l-3.5-3.5L13.3,75.2z"></path><path d="M53.8,44.9l-1.3-1.3c-0.7-0.7-1.8-0.7-2.5,0l-0.1,0.1l-4.1-4.1l4.7-4.7l0.9,0.9l5.3-5.3L53,26.7L47.7,32l0.7,0.7l-4.7,4.7   l-1.1-1.1c-1.2-1.2-3.2-1.2-4.4,0l-1.6,1.6c-1.2,1.2-1.2,3.2,0,4.4l1.1,1.1l-4.4,4.4l-0.7-0.7L27,52.7l3.7,3.7l5.6-5.6L35.4,50   l4.4-4.4l4.1,4.1l-0.1,0.1c-0.7,0.7-0.7,1.8,0,2.5l1.1,1.1c-4.1,7.2-2.6,14.6-2.6,14.6l25.8-25.8C68.2,42.1,60.9,41.1,53.8,44.9z"></path><rect x="16.8" y="60.2" transform="matrix(-0.7071 -0.7071 0.7071 -0.7071 -12.0696 122.9882)" width="5.3" height="7.5"></rect><rect x="9.7" y="67.4" transform="matrix(0.7071 -0.7071 0.7071 0.7071 -45.5788 29.9931)" width="7.5" height="5.3"></rect><path d="M67,70.7c1.2,1.2,3.3,1.1,4.3-0.4c0.6-0.9,0.6-2.1,0-3c-0.4-0.6-0.9-1-1.5-1.2l-2.3-14.4l5-5c0.6-0.6,0.6-1.4,0-2l-1.3-1.3   c-0.6-0.6-1.4-0.6-2,0L43.6,69c-0.6,0.6-0.6,1.4,0,2l1.3,1.3c0.6,0.6,1.4,0.6,2,0l5-5l14.4,2.5C66.5,70.1,66.7,70.4,67,70.7z    M65.8,53.4l2,12.7c-0.1,0-0.1,0.1-0.2,0.1l-7.3-7.3L65.8,53.4z M66.3,67.8l-12.7-2.2l5.3-5.3l7.4,7.4   C66.3,67.7,66.3,67.7,66.3,67.8z"></path><path d="M78.1,70.2c0.4,2.3-0.4,4.7-2.1,6.3c-1.7,1.7-4.2,2.5-6.6,2c-0.7-0.1-1.5,0.3-1.6,1.1c-0.1,0.7,0.3,1.5,1.1,1.6   c3.3,0.6,6.7-0.4,9-2.8c2.3-2.3,3.3-5.5,2.8-8.7c0-0.3-0.2-0.6-0.4-0.8c-0.3-0.3-0.7-0.5-1.2-0.4C78.4,68.8,77.9,69.5,78.1,70.2z"></path><path d="M80.5,81.2c-3.3,3.3-8.1,4.8-12.7,3.9c-0.7-0.1-1.5,0.3-1.6,1.1c-0.1,0.7,0.3,1.5,1.1,1.6c5.5,1.1,11.2-0.7,15.2-4.6   c3.8-3.8,5.6-9.2,4.8-14.5c0-0.3-0.2-0.6-0.4-0.8c-0.3-0.3-0.7-0.5-1.2-0.4c-0.7,0.1-1.3,0.8-1.2,1.6C85.2,73.5,83.7,78,80.5,81.2z   "></path><path d="M93.9,65.2c-0.1-0.3-0.2-0.5-0.4-0.7c-0.3-0.3-0.8-0.5-1.3-0.4c-0.7,0.2-1.2,0.9-1,1.6c1.7,7.3-0.5,14.8-5.8,20.1   C80.6,90.8,73.9,93,67.2,92c-0.7-0.1-1.4,0.4-1.5,1.2c-0.1,0.7,0.4,1.4,1.2,1.5c7.6,1.1,15.1-1.4,20.6-6.9   C93.3,81.9,95.8,73.4,93.9,65.2z"></path></g></g><g id="SvgjsG1560" featurekey="Ua4uQk-0" transform="matrix(2.996575508842023,0,0,2.996575508842023,88.80137022512676,-2.9606169228047143)" fill="#ffffff"><path d="M1.82 9.28 c0 -3.22 2.42 -3.62 3.68 -3.62 c1 0 1.98 0.22 2.72 0.7 l-1.06 2.18 c-0.58 -0.22 -0.8 -0.28 -1.28 -0.28 c-0.9 0 -0.88 0.82 -0.88 1.02 l0 0.32 l2.16 0 l0 2.6 l-2.16 0 l0 7.8 l-3.18 0 l0 -7.8 l-1.42 0 l0 -2.6 l1.42 0 l0 -0.32 z M8.62 9.6 l3.16 0 l0 10.4 l-3.16 0 l0 -10.4 z M16.98 5.859999999999999 l0 14.14 l-3.16 0 l0 -14.14 l3.16 0 z M32.92 9.44 c2.22 0 4.18 1.44 4.18 4.96 l0 5.6 l-3.16 0 l0 -5.5 c0 -1.32 -0.56 -2.32 -2.02 -2.32 c-1.22 0 -2.04 1.08 -2.28 2.04 l0 5.78 l-3.16 0 l0 -5.5 c0 -1.32 -0.82 -2.32 -2.02 -2.32 c-1.3 0 -2.08 0.88 -2.28 2.04 l0 5.78 l-3.16 0 l0 -10.4 l3.16 0 l0 1.9 c0.04 -0.48 1.06 -2.06 3.1 -2.06 c1.5 0 2.94 0.8 3.8 2.26 c0.24 -0.56 1.44 -2.26 3.84 -2.26 z M59.44 9.56 l3.14 0 l-3.72 10.44 l-3.04 0 l-2.28 -6.5 l-2.28 6.5 l-3.04 0 l-3.72 -10.44 l3.14 0 l2.14 6.68 l2.38 -6.68 l2.76 0 l2.38 6.68 z M71.58 9.6 l3.16 0 l0 10.4 l-3.16 0 l0 -1.04 c-0.14 0.36 -1.08 1.24 -2.68 1.24 c-2.38 0 -5.12 -1.7 -5.12 -5.42 c0 -3.58 2.74 -5.36 5.12 -5.36 c1.6 0 2.54 0.92 2.68 1.14 l0 -0.96 z M69.36 17.42 c1.3 0 2.36 -0.9 2.36 -2.64 c0 -1.68 -1.06 -2.58 -2.36 -2.58 c-1.36 0 -2.52 0.92 -2.52 2.58 c0 1.72 1.16 2.64 2.52 2.64 z M83.46 9.44 c0.28 0 0.56 0 0.82 0.06 l0 3.02 c-0.24 -0.06 -0.52 -0.06 -0.72 -0.06 c-1.92 0 -3.46 1.38 -3.62 3.3 l0 4.24 l-3.16 0 l0 -10.4 l3.16 0 l0 2.54 c0.48 -1.56 1.68 -2.7 3.52 -2.7 z M90.83999999999999 12.879999999999999 c-0.28 -0.72 -0.7 -0.96 -1.16 -0.96 c-0.42 0 -0.84 0.24 -0.84 0.64 c0 0.38 0.24 0.6 0.7 0.76 l1.32 0.46 c1.48 0.54 2.98 1.08 2.98 3.16 c0 2.1 -2.1 3.3 -4.26 3.3 c-1.94 0 -3.76 -1.14 -4.2 -2.96 l2.48 -0.78 c0.26 0.58 0.72 1.24 1.72 1.24 c0.68 0 1.12 -0.44 1.12 -0.84 c0 -0.2 -0.16 -0.46 -0.66 -0.66 l-1.22 -0.44 c-2.08 -0.76 -3.06 -1.82 -3.06 -3.3 c0 -1.94 1.8 -3.08 3.78 -3.08 c2.02 0 3.36 1.1 3.96 2.76 z"></path></g></svg>